HIERARCHY
ROOT Hips
{
	OFFSET 0.000000 0.000000 0.000000
	CHANNELS 6 Xposition Yposition Zposition Yrotation Zrotation Xrotation
	JOINT Spine1
	{
		OFFSET 0.000000 -0.000001 5.553894
		CHANNELS 6 Xposition Yposition Zposition Yrotation Zrotation Xrotation
		JOINT Neck
		{
			OFFSET 0.000000 -0.000001 4.427760
			CHANNELS 6 Xposition Yposition Zposition Yrotation Zrotation Xrotation
			JOINT Head
			{
				OFFSET 0.000000 -0.363272 2.815360
				CHANNELS 6 Xposition Yposition Zposition Yrotation Zrotation Xrotation
				End Site
				{
					OFFSET 0.000000 -0.000001 3.632711
				}
			}
		}
		JOINT LeftShoulder
		{
			OFFSET 0.731534 0.096024 3.575179
			CHANNELS 6 Xposition Yposition Zposition Yrotation Zrotation Xrotation
			JOINT LeftArm
			{
				OFFSET 2.610320 0.000000 0.000000
				CHANNELS 6 Xposition Yposition Zposition Yrotation Zrotation Xrotation
				JOINT LeftForeArm
				{
					OFFSET 5.118420 0.000000 0.000000
					CHANNELS 6 Xposition Yposition Zposition Yrotation Zrotation Xrotation
					JOINT LeftHand
					{
						OFFSET 4.756899 0.000000 0.000000
						CHANNELS 6 Xposition Yposition Zposition Yrotation Zrotation Xrotation
						End Site
						{
							OFFSET 2.724534 0.000000 0.000000
						}
					}
				}
			}
		}
		JOINT RightShoulder
		{
			OFFSET -0.721442 0.096024 3.575179
			CHANNELS 6 Xposition Yposition Zposition Yrotation Zrotation Xrotation
			JOINT RightArm
			{
				OFFSET -2.610320 0.000000 0.000000
				CHANNELS 6 Xposition Yposition Zposition Yrotation Zrotation Xrotation
				JOINT RightForeArm
				{
					OFFSET -5.118420 0.000000 0.000000
					CHANNELS 6 Xposition Yposition Zposition Yrotation Zrotation Xrotation
					JOINT RightHand
					{
						OFFSET -4.756900 0.000000 0.000000
						CHANNELS 6 Xposition Yposition Zposition Yrotation Zrotation Xrotation
						End Site
						{
							OFFSET -2.724534 0.000000 0.000000
						}
					}
				}
			}
		}
	}
	JOINT LeftUpLeg
	{
		OFFSET 1.816360 0.000000 0.000000
		CHANNELS 6 Xposition Yposition Zposition Yrotation Zrotation Xrotation
		JOINT LeftLeg
		{
			OFFSET 0.000000 0.000001 -7.638980
			CHANNELS 6 Xposition Yposition Zposition Yrotation Zrotation Xrotation
			JOINT LeftFoot
			{
				OFFSET 0.000000 0.000001 -8.008600
				CHANNELS 6 Xposition Yposition Zposition Yrotation Zrotation Xrotation
				JOINT LeftToeBase
				{
					OFFSET 0.000000 -2.724540 -1.180634
					CHANNELS 6 Xposition Yposition Zposition Yrotation Zrotation Xrotation
					End Site
					{
						OFFSET 0.000000 -0.726542 0.000000
					}
				}
			}
		}
	}
	JOINT RightUpLeg
	{
		OFFSET -1.816360 0.000000 0.000000
		CHANNELS 6 Xposition Yposition Zposition Yrotation Zrotation Xrotation
		JOINT RightLeg
		{
			OFFSET 0.000000 0.000001 -7.638980
			CHANNELS 6 Xposition Yposition Zposition Yrotation Zrotation Xrotation
			JOINT RightFoot
			{
				OFFSET 0.000000 0.000001 -8.008600
				CHANNELS 6 Xposition Yposition Zposition Yrotation Zrotation Xrotation
				JOINT RightToeBase
				{
					OFFSET 0.000000 -2.724540 -1.180634
					CHANNELS 6 Xposition Yposition Zposition Yrotation Zrotation Xrotation
					End Site
					{
						OFFSET 0.000000 -0.726542 0.000000
					}
				}
			}
		}
	}
}
MOTION
Frames: 10
Frame Time: 0.041667
-0.673611 -0.372076 14.927923 -2.243408 -0.218093 17.800796 -0.000000 -0.000000 5.553895 -8.169958 -1.285247 -20.189906 0.000000 -0.000001 4.427762 2.416800 1.857987 13.419849 0.000000 -0.363272 2.815358 5.697511 2.264444 5.088507 0.731534 0.096024 3.575177 -18.136586 3.229789 -7.535800 2.610321 -0.000001 -0.000002 4.234642 -12.509424 -9.791979 5.118421 0.000000 0.000002 3.161466 1.878279 -4.560850 4.756898 -0.000001 0.000002 -2.391163 18.515292 -4.119106 -0.721442 0.096024 3.575180 14.495784 -4.769652 0.101080 -2.610320 -0.000000 0.000000 -25.999381 13.842925 27.563064 -5.118419 -0.000001 -0.000000 113.271891 58.356918 -71.929487 -4.756900 0.000001 -0.000001 31.778770 -1.942699 9.214736 1.816360 0.000001 0.000002 -12.449107 25.701404 -33.713117 0.000000 0.000002 -7.638980 3.076816 16.994600 33.117750 0.000000 0.000001 -8.008601 6.715761 17.703371 1.313853 -0.000000 -2.724539 -1.180634 0.000000 -0.000002 -0.000002 -1.816360 0.000000 0.000000 32.693264 -3.983517 -28.386425 0.000001 0.000002 -7.638980 -14.996334 -27.777476 24.594903 0.000000 0.000001 -8.008599 -13.458476 -25.162238 -10.089848 0.000000 -2.724541 -1.180634 0.000001 0.000004 0.000000 
-0.673369 -0.376156 14.929134 -2.230036 -0.168122 17.766468 0.000000 0.000001 5.553892 -8.183481 -1.324217 -20.168620 0.000000 -0.000001 4.427760 2.420839 1.868068 13.417128 0.000000 -0.363273 2.815359 5.714849 2.280064 5.150065 0.731534 0.096024 3.575179 -18.141944 3.219892 -7.548267 2.610320 -0.000000 0.000004 4.267151 -12.531496 -9.834728 5.118420 -0.000000 -0.000001 3.168057 1.904208 -4.541900 4.756898 -0.000000 -0.000000 -2.383416 18.504111 -4.100836 -0.721441 0.096024 3.575181 14.501125 -4.775148 0.112677 -2.610321 -0.000000 0.000002 -26.037373 13.852197 27.524773 -5.118418 -0.000000 -0.000001 113.301022 58.411006 -71.996525 -4.756900 -0.000001 -0.000001 31.830164 -1.894921 9.228775 1.816360 0.000001 -0.000002 -12.487562 25.658914 -33.669165 0.000000 0.000002 -7.638980 3.078936 16.990960 33.096713 0.000000 0.000001 -8.008598 6.719328 17.693088 1.323012 0.000000 -2.724539 -1.180635 0.000001 0.000001 -0.000001 -1.816360 0.000001 -0.000002 32.671998 -3.965576 -28.301596 -0.000000 0.000001 -7.638982 -15.005104 -27.758201 24.556984 0.000000 0.000001 -8.008599 -13.483762 -25.184606 -10.101233 0.000001 -2.724539 -1.180633 -0.000000 0.000003 -0.000002 
-0.672866 -0.377736 14.930073 -2.221746 -0.156895 17.764642 0.000000 -0.000000 5.553895 -8.175008 -1.323843 -20.174137 0.000000 -0.000001 4.427763 2.396352 1.867671 13.409993 -0.000000 -0.363272 2.815361 5.779244 2.300979 5.216019 0.731534 0.096024 3.575179 -18.156258 3.210716 -7.555787 2.610319 -0.000001 -0.000001 4.306116 -12.555387 -9.856504 5.118421 -0.000001 -0.000001 3.159878 1.927622 -4.511491 4.756902 0.000001 0.000000 -2.384402 18.501968 -4.069807 -0.721443 0.096024 3.575181 14.487651 -4.775955 0.106662 -2.610320 -0.000000 -0.000000 -26.072381 13.852488 27.503432 -5.118419 -0.000001 0.000003 113.334149 58.452055 -72.029966 -4.756901 0.000001 0.000001 31.772397 -1.838872 9.261216 1.816360 0.000001 0.000001 -12.449789 25.712812 -33.685369 -0.000000 0.000001 -7.638978 3.067268 16.925175 33.105445 0.000000 0.000000 -8.008599 6.720924 17.680163 1.326758 0.000000 -2.724539 -1.180633 -0.000001 -0.000001 -0.000000 -1.816360 0.000001 0.000001 32.655537 -3.960314 -28.293239 0.000001 0.000001 -7.638980 -14.991220 -27.732387 24.563753 -0.000001 0.000001 -8.008601 -13.531098 -25.184840 -10.119527 0.000000 -2.724540 -1.180633 0.000000 0.000002 0.000000 
-0.672244 -0.379411 14.931113 -2.219592 -0.140508 17.765693 0.000000 -0.000001 5.553895 -8.180789 -1.329252 -20.176655 -0.000000 -0.000001 4.427762 2.417859 1.886889 13.395600 -0.000000 -0.363271 2.815358 5.791902 2.320880 5.275682 0.731533 0.096024 3.575177 -18.147224 3.175571 -7.569499 2.610320 -0.000000 0.000004 4.324853 -12.559097 -9.921552 5.118420 0.000001 -0.000001 3.182340 1.954242 -4.484837 4.756899 0.000001 0.000003 -2.405453 18.482617 -4.039032 -0.721442 0.096024 3.575179 14.500396 -4.788143 0.109119 -2.610320 -0.000000 0.000003 -26.090730 13.847558 27.400537 -5.118419 -0.000000 0.000005 113.434703 58.563019 -72.196145 -4.756904 0.000001 0.000004 31.782284 -1.803571 9.321954 1.816360 0.000000 0.000001 -12.450316 25.698242 -33.682736 -0.000000 0.000002 -7.638982 3.066572 16.922869 33.100210 0.000000 0.000001 -8.008599 6.672910 17.679485 1.345304 0.000000 -2.724540 -1.180634 -0.000000 -0.000002 0.000001 -1.816360 -0.000000 0.000001 32.646648 -3.955766 -28.278503 -0.000001 0.000002 -7.638982 -14.976375 -27.746766 24.555988 -0.000000 0.000001 -8.008599 -13.520797 -25.195069 -10.103380 0.000000 -2.724539 -1.180634 0.000000 0.000004 0.000000 
-0.672147 -0.381575 14.932430 -2.221868 -0.134898 17.756940 -0.000000 -0.000001 5.553893 -8.168686 -1.318060 -20.171260 0.000000 -0.000001 4.427763 2.422531 1.878235 13.390308 0.000000 -0.363272 2.815362 5.832929 2.320405 5.313112 0.731534 0.096024 3.575180 -18.172108 3.173309 -7.565398 2.610319 -0.000001 -0.000003 4.378252 -12.607412 -9.952629 5.118421 -0.000000 0.000001 3.199602 1.976476 -4.454345 4.756899 -0.000001 -0.000000 -2.402386 18.492240 -4.007916 -0.721442 0.096024 3.575183 14.501796 -4.817214 0.109486 -2.610321 -0.000000 -0.000003 -26.117660 13.845015 27.430465 -5.118419 0.000000 0.000005 113.460719 58.546278 -72.183522 -4.756901 0.000001 0.000001 31.765588 -1.797292 9.341050 1.816360 0.000000 -0.000000 -12.441174 25.697902 -33.663185 -0.000000 0.000001 -7.638982 3.052730 16.918865 33.081280 0.000000 0.000001 -8.008599 6.687518 17.666472 1.364552 -0.000000 -2.724539 -1.180633 0.000000 0.000001 0.000002 -1.816360 0.000000 -0.000001 32.637806 -3.952353 -28.269784 0.000000 0.000002 -7.638981 -14.953876 -27.754440 24.569181 -0.000000 0.000001 -8.008599 -13.481731 -25.215168 -10.064081 -0.000000 -2.724539 -1.180633 0.000001 -0.000000 0.000002 
-0.671438 -0.382839 14.933132 -2.216317 -0.119701 17.759626 0.000000 -0.000002 5.553892 -8.155603 -1.309915 -20.178238 -0.000000 -0.000000 4.427760 2.447912 1.888601 13.376658 0.000000 -0.363273 2.815360 5.812553 2.324061 5.365169 0.731534 0.096025 3.575180 -18.198841 3.164829 -7.559260 2.610319 -0.000000 -0.000001 4.409572 -12.649270 -9.990593 5.118419 0.000000 -0.000003 3.231942 2.006296 -4.413489 4.756899 -0.000000 -0.000000 -2.393545 18.530913 -3.966265 -0.721442 0.096025 3.575181 14.487272 -4.832955 0.107154 -2.610321 -0.000000 -0.000002 -26.139153 13.837710 27.432113 -5.118420 -0.000002 0.000003 113.514206 58.556339 -72.222673 -4.756901 0.000000 -0.000001 31.772206 -1.807211 9.374225 1.816360 -0.000000 -0.000003 -12.451468 25.680391 -33.658421 -0.000000 0.000002 -7.638981 3.069122 16.910640 33.073852 0.000000 0.000001 -8.008597 6.690436 17.685522 1.351909 -0.000000 -2.724540 -1.180634 0.000000 -0.000002 -0.000000 -1.816360 -0.000000 -0.000002 32.624429 -3.947293 -28.259443 0.000001 0.000001 -7.638981 -14.965047 -27.696444 24.553504 0.000001 0.000001 -8.008599 -13.541541 -25.265570 -10.101543 0.000000 -2.724539 -1.180633 0.000001 0.000003 -0.000000 
-0.671464 -0.384055 14.934084 -2.210028 -0.107785 17.761629 0.000000 -0.000000 5.553894 -8.146308 -1.306080 -20.182126 -0.000000 -0.000001 4.427760 2.474306 1.908402 13.348450 -0.000000 -0.363273 2.815359 5.790496 2.337462 5.422776 0.731533 0.096024 3.575178 -18.216326 3.171706 -7.554746 2.610320 -0.000001 0.000002 4.431906 -12.705217 -10.001221 5.118419 -0.000000 -0.000003 3.262403 2.032179 -4.403860 4.756899 -0.000002 0.000000 -2.424022 18.544546 -3.950102 -0.721442 0.096024 3.575178 14.485064 -4.840403 0.111591 -2.610320 -0.000000 -0.000003 -26.161964 13.833490 27.416062 -5.118419 0.000001 -0.000004 113.595717 58.581966 -72.324798 -4.756903 -0.000000 -0.000001 31.787489 -1.816888 9.392865 1.816360 0.000000 -0.000000 -12.429552 25.703971 -33.671470 -0.000001 0.000002 -7.638980 3.056012 16.874116 33.075147 0.000001 0.000001 -8.008599 6.727855 17.680940 1.355172 0.000000 -2.724540 -1.180633 -0.000001 -0.000001 -0.000001 -1.816360 0.000000 -0.000001 32.608949 -3.943190 -28.256347 -0.000001 0.000001 -7.638980 -14.955647 -27.668200 24.556313 0.000001 0.000001 -8.008599 -13.512141 -25.304290 -10.070252 -0.000000 -2.724540 -1.180632 0.000001 0.000006 0.000000 
-0.671874 -0.384980 14.935061 -2.202994 -0.090757 17.768872 0.000000 -0.000001 5.553895 -8.131453 -1.307857 -20.195859 -0.000000 -0.000001 4.427759 2.484323 1.906536 13.343263 0.000000 -0.363273 2.815362 5.790972 2.334394 5.443035 0.731534 0.096024 3.575180 -18.240992 3.186250 -7.518461 2.610318 -0.000000 -0.000000 4.446828 -12.774940 -10.035965 5.118420 0.000000 0.000000 3.281863 2.056483 -4.377520 4.756896 -0.000001 0.000002 -2.365975 18.551834 -3.932039 -0.721442 0.096024 3.575178 14.492627 -4.805058 0.090609 -2.610320 0.000000 -0.000002 -26.209843 13.759554 27.427250 -5.118418 -0.000001 0.000000 113.723449 58.590729 -72.477596 -4.756901 0.000001 0.000004 31.834641 -1.838859 9.395304 1.816360 0.000000 -0.000001 -12.444699 25.679532 -33.671357 0.000000 0.000002 -7.638979 3.053718 16.897207 33.059000 0.000000 0.000001 -8.008601 6.690616 17.677851 1.372486 0.000000 -2.724540 -1.180635 0.000002 0.000001 0.000001 -1.816360 0.000001 -0.000000 32.584616 -3.939762 -28.273764 0.000001 0.000002 -7.638981 -14.883020 -27.730279 24.606865 -0.000000 0.000001 -8.008601 -13.581893 -25.250151 -10.082841 0.000001 -2.724538 -1.180633 0.000001 0.000001 0.000001 
-0.671808 -0.385778 14.936280 -2.190281 -0.082464 17.779112 -0.000000 0.000000 5.553892 -8.122499 -1.301991 -20.215447 0.000000 -0.000000 4.427760 2.466560 1.893240 13.339463 -0.000000 -0.363273 2.815358 5.859293 2.338444 5.457983 0.731534 0.096025 3.575179 -18.258325 3.186097 -7.513753 2.610319 -0.000001 -0.000002 4.458226 -12.810045 -10.014498 5.118420 -0.000001 -0.000002 3.302625 2.049310 -4.414811 4.756900 -0.000001 0.000003 -2.384921 18.529303 -3.966549 -0.721442 0.096025 3.575180 14.482154 -4.812184 0.088413 -2.610321 -0.000000 0.000004 -26.222413 13.755736 27.419962 -5.118419 -0.000001 0.000001 113.789879 58.619135 -72.549942 -4.756902 0.000001 -0.000000 31.741948 -1.795812 9.413743 1.816360 0.000000 -0.000002 -12.439056 25.698889 -33.684085 -0.000001 0.000002 -7.638981 3.053435 16.874249 33.048953 -0.000000 0.000001 -8.008597 6.698572 17.673357 1.385324 0.000000 -2.724539 -1.180634 -0.000001 -0.000003 0.000001 -1.816360 0.000001 -0.000001 32.562302 -3.933954 -28.273681 -0.000001 0.000002 -7.638980 -14.876164 -27.702055 24.593474 0.000001 0.000002 -8.008600 -13.514421 -25.273273 -10.025038 0.000000 -2.724539 -1.180634 -0.000001 0.000003 0.000002 
-0.671678 -0.386446 14.936957 -2.186942 -0.079578 17.790047 -0.000000 -0.000001 5.553893 -8.091326 -1.287484 -20.241682 0.000000 -0.000001 4.427758 2.438209 1.888622 13.348312 -0.000000 -0.363271 2.815359 5.913004 2.350562 5.463231 0.731534 0.096024 3.575178 -18.282495 3.164587 -7.516711 2.610319 -0.000001 0.000001 4.460876 -12.814208 -10.003103 5.118419 0.000001 -0.000001 3.305268 2.032593 -4.420035 4.756901 -0.000001 0.000001 -2.352444 18.551274 -3.977048 -0.721442 0.096024 3.575175 14.455901 -4.820409 0.121080 -2.610321 -0.000001 0.000002 -26.220191 13.775116 27.397106 -5.118417 0.000001 0.000002 113.842280 58.639387 -72.618496 -4.756903 0.000002 -0.000000 31.712329 -1.794765 9.424285 1.816360 0.000000 -0.000000 -12.433392 25.702070 -33.690752 -0.000000 0.000002 -7.638980 3.051051 16.873351 33.033216 0.000000 0.000001 -8.008601 6.731163 17.672652 1.379774 0.000001 -2.724540 -1.180634 0.000002 -0.000004 -0.000001 -1.816360 0.000000 -0.000001 32.538693 -3.931005 -28.291899 -0.000000 0.000001 -7.638979 -14.813960 -27.721288 24.620824 -0.000000 0.000001 -8.008599 -13.635513 -25.241113 -10.069060 0.000000 -2.724540 -1.180635 -0.000000 0.000006 0.000001 
